# File created by Blade
# Date/Time:  Thu Sep 25 14:26:36 2014
# Frame Rate: 120.000 fps
#------------------------------------------------------
:FULLY-SPECIFIED
:DEGREES
794
root 18.377837 31.917551 -1.377869 -2.359931 86.647386 19.982119
Spine -32.468273 8.675702 4.487352
Head -65.521083 -2.567762 4.227220
LeftShoulder -8.173631 2.739381 29.282997
LeftArm 50.548447 -33.015377 -30.716269
LeftForeArm 8.966431 -0.000000 32.863879
LeftHand -25.089557 -0.000000 16.461957
LeftHandThumb1 -26.253704 0.000000 33.147579
RightShoulder -19.236089 27.890391 -37.821206
RightArm 37.820603 7.213984 38.514651
RightForeArm -24.221283 -0.000000 30.780494
RightHand -8.024055 0.000000 -15.777868
RightHandThumb1 -24.326973 -0.000000 -32.862282
LeftUpLeg 26.737099 4.759256 16.101562
LeftLeg 13.606208 -0.000000 -0.000000
LeftFoot -20.247061 8.139706 -32.064575
LeftToeBase 6.629127 -0.000000 -0.000000
RightUpLeg 25.394321 -7.789950 -17.460593
RightLeg 17.613098 -0.000000 -0.000000
RightFoot -17.996238 -11.208207 5.154620
RightToeBase 1.574472 -0.000000 -0.000000
795
root 18.428591 31.904443 -1.399035 -1.163078 86.599589 21.387686
Spine -32.965258 8.671318 4.446771
Head -67.248416 -2.585785 4.160916
LeftShoulder -8.054947 2.689588 29.455701
LeftArm 50.642060 -33.788034 -30.864768
LeftForeArm 9.025910 -0.000000 33.002625
LeftHand -25.368841 -0.000000 17.017184
LeftHandThumb1 -26.253704 0.000000 33.147579
RightShoulder -19.234807 27.932462 -37.985888
RightArm 37.936973 7.867536 38.526262
RightForeArm -24.254602 -0.000000 31.172705
RightHand -8.227569 -0.000000 -16.327230
RightHandThumb1 -24.326973 -0.000000 -32.862282
LeftUpLeg 26.872389 4.751285 16.019448
LeftLeg 13.971374 -0.000000 -0.000000
LeftFoot -20.423708 8.020446 -32.104087
LeftToeBase 6.675143 -0.000000 -0.000000
RightUpLeg 25.496669 -7.594753 -17.581984
RightLeg 17.949123 -0.000000 -0.000000
RightFoot -18.176786 -11.278652 5.272561
RightToeBase 1.633296 -0.000000 -0.000000
796
root 18.477718 31.891930 -1.420546 0.904890 86.567943 23.778539
Spine -33.174786 8.497635 4.407126
Head -69.380919 -2.127622 4.115812
LeftShoulder -8.322852 2.550958 29.532179
LeftArm 51.001813 -34.495600 -31.031707
LeftForeArm 9.228626 0.000000 33.082692
LeftHand -25.600455 -0.000000 17.483856
LeftHandThumb1 -26.253704 0.000000 33.147579
RightShoulder -19.351997 28.188210 -38.085448
RightArm 38.188354 8.450712 38.536320
RightForeArm -24.316254 -0.000000 31.570948
RightHand -8.536480 0.000000 -16.961017
RightHandThumb1 -24.326973 -0.000000 -32.862282
LeftUpLeg 27.092568 4.679634 15.860108
LeftLeg 14.345472 -0.000000 -0.000000
LeftFoot -20.590820 7.979624 -32.205447
LeftToeBase 6.631321 -0.000000 -0.000000
RightUpLeg 25.710036 -7.356174 -17.765258
RightLeg 18.293077 -0.000000 -0.000000
RightFoot -18.371680 -11.367768 5.404056
RightToeBase 1.628022 -0.000000 -0.000000
797
root 18.526646 31.878457 -1.441016 2.341505 86.534193 25.403683
Spine -33.705645 8.576128 4.347396
Head -71.190560 -2.575857 4.062668
LeftShoulder -8.096822 2.320069 29.485723
LeftArm 50.930670 -35.218342 -30.774509
LeftForeArm 9.082622 -0.000000 33.182153
LeftHand -25.754630 -0.000000 17.892036
LeftHandThumb1 -26.253704 0.000000 33.147579
RightShoulder -19.473337 28.105143 -38.437894
RightArm 38.371243 9.237047 38.802679
RightForeArm -24.513437 -0.000000 31.981809
RightHand -8.653810 0.000000 -17.601774
RightHandThumb1 -24.326973 -0.000000 -32.862282
LeftUpLeg 27.189736 4.663379 15.749447
LeftLeg 14.718128 -0.000000 -0.000000
LeftFoot -20.780619 7.921013 -32.231935
LeftToeBase 6.635228 -0.000000 -0.000000
RightUpLeg 25.784433 -7.134541 -17.868444
RightLeg 18.654990 -0.000000 -0.000000
RightFoot -18.568785 -11.459158 5.591254
RightToeBase 1.665255 -0.000000 -0.000000
798
root 18.568466 31.863370 -1.459721 4.005520 86.524818 27.308468
Spine -34.095436 8.460680 4.276672
Head -73.165356 -2.411368 4.052873
LeftShoulder -8.176468 2.212481 29.560284
LeftArm 51.203110 -35.987987 -30.912695
LeftForeArm 9.187880 -0.000000 33.351057
LeftHand -25.954348 -0.000000 18.469276
LeftHandThumb1 -26.253704 0.000000 33.147579
RightShoulder -19.516529 28.039435 -38.513427
RightArm 38.673332 10.022983 38.851797
RightForeArm -24.683415 -0.000000 32.415556
RightHand -8.970920 -0.000000 -18.323860
RightHandThumb1 -24.326973 -0.000000 -32.862282
LeftUpLeg 27.277415 4.625130 15.641839
LeftLeg 15.172137 -0.000000 -0.000000
LeftFoot -20.957144 7.824192 -32.291059
LeftToeBase 6.558475 -0.000000 -0.000000
RightUpLeg 25.886101 -6.898369 -17.967214
RightLeg 19.057927 -0.000000 -0.000000
RightFoot -18.797799 -11.601008 5.825642
RightToeBase 1.692246 -0.000000 -0.000000
799
root 18.612825 31.846715 -1.480652 5.672641 86.525828 29.250309
Spine -34.446573 8.324495 4.224096
Head -75.090613 -2.307787 4.049543
LeftShoulder -8.291459 2.309062 29.659538
LeftArm 51.627875 -36.914967 -31.210025
LeftForeArm 9.314072 0.000000 33.556397
LeftHand -26.365137 -0.000000 19.010273
LeftHandThumb1 -26.253704 0.000000 33.147579
RightShoulder -19.599416 28.309665 -38.610971
RightArm 38.870826 10.525328 38.702145
RightForeArm -24.749658 -0.000000 32.770849
RightHand -9.218391 0.000000 -18.987301
RightHandThumb1 -24.326973 -0.000000 -32.862282
LeftUpLeg 27.411233 4.574406 15.537049
LeftLeg 15.604346 -0.000000 -0.000000
LeftFoot -21.159279 7.717763 -32.296093
LeftToeBase 6.523603 -0.000000 -0.000000
RightUpLeg 26.029240 -6.663647 -18.080600
RightLeg 19.480498 -0.000000 -0.000000
RightFoot -19.006255 -11.710036 6.266427
RightToeBase 1.449592 -0.000000 -0.000000
800
root 18.654784 31.829639 -1.499949 7.790273 86.551609 31.631456
Spine -34.886290 8.205791 4.073538
Head -76.808278 -2.233762 4.075748
LeftShoulder -8.267534 2.339952 29.784182
LeftArm 52.044307 -37.816030 -31.542267
LeftForeArm 9.625097 -0.000000 33.765823
LeftHand -26.743663 -0.000000 19.757617
LeftHandThumb1 -26.253704 0.000000 33.147579
RightShoulder -19.594401 28.389230 -38.625542
RightArm 39.049504 11.288672 38.705496
RightForeArm -24.752312 -0.000000 33.231854
RightHand -9.418768 -0.000000 -19.616411
RightHandThumb1 -24.326973 -0.000000 -32.862282
LeftUpLeg 27.516287 4.447976 15.380298
LeftLeg 16.027928 -0.000000 -0.000000
LeftFoot -21.362786 7.639531 -32.374822
LeftToeBase 6.463135 -0.000000 -0.000000
RightUpLeg 26.162976 -6.504994 -18.237947
RightLeg 19.894748 -0.000000 -0.000000
RightFoot -19.209347 -11.817609 6.437297
RightToeBase 1.376292 -0.000000 -0.000000
801
root 18.693479 31.811853 -1.517814 9.721851 86.590952 33.807148
Spine -35.315021 8.077429 3.980566
Head -78.610335 -2.236205 4.071220
LeftShoulder -8.307976 2.361418 29.790757
LeftArm 52.537436 -38.747073 -31.911330
LeftForeArm 9.963494 -0.000000 34.079217
LeftHand -27.241725 -0.000000 20.612823
LeftHandThumb1 -26.253704 0.000000 33.147579
RightShoulder -19.641315 28.395928 -38.761285
RightArm 39.255422 12.067635 38.802171
RightForeArm -24.687116 -0.000000 33.776393
RightHand -9.684184 -0.000000 -20.057385
RightHandThumb1 -24.326973 -0.000000 -32.862282
LeftUpLeg 27.576638 4.318167 15.250390
LeftLeg 16.491525 -0.000000 -0.000000
LeftFoot -21.557057 7.513941 -32.476410
LeftToeBase 6.424752 -0.000000 -0.000000
RightUpLeg 26.269437 -6.371699 -18.365061
RightLeg 20.323563 -0.000000 -0.000000
RightFoot -19.411064 -11.943957 6.586772
RightToeBase 1.426552 -0.000000 -0.000000
802
root 18.736034 31.791795 -1.536450 11.544457 86.641543 35.991012
Spine -35.586274 7.982911 3.911190
Head -80.405852 -2.166959 3.899757
LeftShoulder -8.334149 2.290501 29.784219
LeftArm 53.064966 -39.663900 -32.357424
LeftForeArm 10.387782 -0.000000 34.376368
LeftHand -27.653729 -0.000000 21.220873
LeftHandThumb1 -26.253704 0.000000 33.147579
RightShoulder -19.719286 28.233259 -38.771094
RightArm 39.739914 13.027521 38.856121
RightForeArm -24.458424 -0.000000 34.177936
RightHand -9.399235 -0.000000 -20.767269
RightHandThumb1 -24.326973 -0.000000 -32.862282
LeftUpLeg 27.745216 4.163334 15.143152
LeftLeg 16.966919 -0.000000 -0.000000
LeftFoot -21.786350 7.401342 -32.573341
LeftToeBase 6.368721 -0.000000 -0.000000
RightUpLeg 26.495847 -6.230607 -18.507138
RightLeg 20.756075 -0.000000 -0.000000
RightFoot -19.615802 -12.098247 6.720461
RightToeBase 1.363686 -0.000000 -0.000000
